<svg xmlns="http://www.w3.org/2000/svg" viewBox="0 0 100 100">
  <circle cx="50" cy="50" r="49" fill="#1A1400"/>
  <circle cx="50" cy="50" r="46" fill="#F5A800"/>
  <circle cx="50" cy="50" r="46" fill="none" stroke="#1A1400" stroke-width="3"/>
  <path d="M 50.000,14.580 A 35.420,35.420 0 0,1 19.325,32.290 L 40.798,44.687 A 10.626,10.626 0 0,0 50.000,39.374 Z M 19.325,67.710 A 35.420,35.420 0 0,1 50.000,85.420 L 50.000,60.626 A 10.626,10.626 0 0,0 40.798,55.313 Z M 80.675,67.710 A 35.420,35.420 0 0,1 80.675,32.290 L 59.202,44.687 A 10.626,10.626 0 0,0 59.202,55.313 Z M 57.084,50.000 A 7.084,7.084 0 1,1 42.916,50.000 A 7.084,7.084 0 1,1 57.084,50.000 Z" fill="#1A1400" fill-rule="evenodd"/>
</svg>